<svg width="120" height="34" viewBox="0 0 120 34" fill="none" xmlns="http://www.w3.org/2000/svg">
<path d="M14.72 20.88C14.72 18.96 14.5173 17.424 14.112 16.272C13.7067 15.12 13.1733 14.256 12.512 13.68C11.8507 13.104 11.1253 12.72 10.336 12.528C9.55733 12.336 8.78933 12.24 8.032 12.24H5.44V29.776H8.064C8.85333 29.776 9.63733 29.6533 10.416 29.408C11.2053 29.152 11.9253 28.704 12.576 28.064C13.2267 27.4133 13.744 26.512 14.128 25.36C14.5227 24.1973 14.72 22.704 14.72 20.88ZM17.68 20.88C17.68 22.7147 17.4827 24.2827 17.088 25.584C16.704 26.8747 16.176 27.9413 15.504 28.784C14.832 29.6267 14.064 30.2827 13.2 30.752C12.3467 31.2107 11.4453 31.536 10.496 31.728C9.55733 31.9093 8.63467 32 7.728 32H2.672V9.968H7.376C8.66667 9.968 9.92 10.112 11.136 10.4C12.3627 10.688 13.4667 11.2213 14.448 12C15.44 12.768 16.224 13.8667 16.8 15.296C17.3867 16.7253 17.68 18.5867 17.68 20.88ZM48.039 28.848L53.991 9.968H56.791L49.415 32H46.535L39.159 9.968H42.151L48.039 28.848ZM86.782 32.368C85.0433 32.368 83.5287 31.9467 82.238 31.104C80.958 30.2613 79.966 28.9973 79.262 27.312C78.558 25.6267 78.206 23.5147 78.206 20.976C78.206 19.0773 78.4567 17.4187 78.958 16C79.47 14.5813 80.158 13.3973 81.022 12.448C81.8967 11.4987 82.8833 10.7893 83.982 10.32C85.0913 9.85067 86.238 9.616 87.422 9.616C88.862 9.616 90.0567 9.824 91.006 10.24C91.9553 10.6453 92.862 11.2427 93.726 12.032L92.046 13.776C91.374 13.1467 90.6647 12.6827 89.918 12.384C89.182 12.0853 88.3553 11.936 87.438 11.936C86.638 11.936 85.8647 12.0907 85.118 12.4C84.3713 12.7093 83.6993 13.216 83.102 13.92C82.5153 14.6133 82.046 15.536 81.694 16.688C81.3527 17.84 81.182 19.2693 81.182 20.976C81.182 23.0987 81.4007 24.8267 81.838 26.16C82.286 27.4933 82.942 28.4747 83.806 29.104C84.6807 29.7227 85.758 30.032 87.038 30.032C87.806 30.032 88.5313 29.9413 89.214 29.76C89.9073 29.5787 90.5793 29.3173 91.23 28.976V22.256H86.894L86.558 19.952H93.982V30.448C92.99 30.9813 91.934 31.4347 90.814 31.808C89.694 32.1813 88.35 32.368 86.782 32.368ZM112.465 9.968V32H109.698V23.152H104.786L100.114 32H97.0095L102.194 22.512C100.914 21.9253 99.9482 21.1147 99.2975 20.08C98.6575 19.0347 98.3375 17.84 98.3375 16.496C98.3375 14.4373 99.0468 12.8373 100.466 11.696C101.884 10.544 103.954 9.968 106.674 9.968H112.465ZM109.698 12.176H106.338C104.642 12.176 103.378 12.5227 102.546 13.216C101.724 13.9093 101.314 15.0027 101.314 16.496C101.314 17.9893 101.692 19.0933 102.45 19.808C103.207 20.5227 104.306 20.88 105.746 20.88H109.698V12.176Z" fill="white"/>
<path d="M63.768 21.056C63.768 20.5333 63.8907 20.064 64.136 19.648C64.3813 19.2213 64.712 18.8853 65.128 18.64C65.5547 18.384 66.0347 18.256 66.568 18.256C67.112 18.256 67.5973 18.384 68.024 18.64C68.4507 18.8853 68.7867 19.2213 69.032 19.648C69.2773 20.064 69.4 20.5333 69.4 21.056C69.4 21.5787 69.2773 22.0587 69.032 22.496C68.7867 22.9227 68.4507 23.264 68.024 23.52C67.5973 23.7653 67.112 23.888 66.568 23.888C66.0347 23.888 65.5547 23.7653 65.128 23.52C64.712 23.264 64.3813 22.9227 64.136 22.496C63.8907 22.0587 63.768 21.5787 63.768 21.056Z" fill="#FCFF00"/>
<path d="M35.752 29.392V32H21.448V29.392H35.752ZM33.832 19.536V22.112H23.048V19.536H33.832ZM35.432 9.968L35.032 12.512H21.448V9.968H35.432Z" fill="#FCFF00"/>
</svg>
