<svg width="39" height="37" viewBox="0 0 39 37" fill="none" xmlns="http://www.w3.org/2000/svg">
<rect width="39" height="37" rx="10" fill="black"/>
<path fill-rule="evenodd" clip-rule="evenodd" d="M22.304 29.032V26.424H8V29.032H22.304ZM20.384 19.144V16.568H9.6V19.144H20.384ZM21.584 9.544L21.984 7H8V9.544H21.584ZM26.688 16.68C26.4427 17.096 26.32 17.5653 26.32 18.088C26.32 18.6107 26.4427 19.0907 26.688 19.528C26.9333 19.9547 27.264 20.296 27.68 20.552C28.1067 20.7973 28.5867 20.92 29.12 20.92C29.664 20.92 30.1493 20.7973 30.576 20.552C31.0027 20.296 31.3387 19.9547 31.584 19.528C31.8293 19.0907 31.952 18.6107 31.952 18.088C31.952 17.5653 31.8293 17.096 31.584 16.68C31.3387 16.2533 31.0027 15.9173 30.576 15.672C30.1493 15.416 29.664 15.288 29.12 15.288C28.5867 15.288 28.1067 15.416 27.68 15.672C27.264 15.9173 26.9333 16.2533 26.688 16.68Z" fill="#FCFF00"/>
</svg>
